<svg width="139.74mm" height="16.933mm" version="1.1" viewBox="0 0 139.74 16.933" xmlns="http://www.w3.org/2000/svg">
	<g transform="translate(-1.1803 -1.0584)">
		<g transform="translate(.89055 -4.4528)" stroke-width=".26458" fill="white" aria-label="madcrasher">
			<path d="m15.846 9.9364q2.2804 0 3.6124 1.3547 1.3547 1.3321 1.3547 4.0188v6.954h-3.5221v-6.4121q0-1.445-0.6096-2.1449-0.58702-0.72249-1.6933-0.72249-1.2418 0-1.9643 0.8128-0.72249 0.79022-0.72249 2.3707v6.096h-3.5221v-6.4121q0-2.8674-2.3029-2.8674-1.2192 0-1.9417 0.8128-0.72249 0.79022-0.72249 2.3707v6.096h-3.5221v-12.147h3.3641v1.3998q0.67733-0.76764 1.6482-1.174 0.99342-0.4064 2.1675-0.4064 1.2869 0 2.3255 0.51929 1.0386 0.49671 1.6708 1.4676 0.74507-0.94827 1.874-1.4676 1.1515-0.51929 2.5061-0.51929z"/>
			<path d="m28.869 9.9364q2.8222 0 4.3349 1.3547 1.5127 1.3321 1.5127 4.0414v6.9314h-3.2964v-1.5127q-0.99342 1.6933-3.7028 1.6933-1.3998 0-2.4384-0.47413-1.016-0.47413-1.5579-1.3095-0.54187-0.83538-0.54187-1.8965 0-1.6933 1.2644-2.6642 1.2869-0.97085 3.9511-0.97085h2.7996q0-1.1515-0.69991-1.7611-0.69991-0.63218-2.0997-0.63218-0.97084 0-1.9191 0.31609-0.92569 0.29351-1.5804 0.8128l-1.2644-2.461q0.99342-0.69991 2.3707-1.0837 1.3998-0.38382 2.8674-0.38382zm-0.27093 10.137q0.90311 0 1.603-0.4064 0.69991-0.42898 0.99342-1.2418v-1.2418h-2.4158q-2.1675 0-2.1675 1.4224 0 0.67733 0.51929 1.0837 0.54187 0.38382 1.4676 0.38382z"/>
			<path d="m50.41 5.5111v16.753h-3.3641v-1.3998q-1.3095 1.5804-3.7931 1.5804-1.7159 0-3.1157-0.76765-1.3772-0.76764-2.1675-2.19-0.79022-1.4224-0.79022-3.2964 0-1.874 0.79022-3.2964 0.79022-1.4224 2.1675-2.19 1.3998-0.76765 3.1157-0.76765 2.3255 0 3.635 1.4676v-5.8928zm-6.5476 14.043q1.3321 0 2.2126-0.90311 0.88054-0.92569 0.88054-2.461 0-1.5353-0.88054-2.4384-0.88053-0.92569-2.2126-0.92569-1.3547 0-2.2352 0.92569-0.88054 0.90311-0.88054 2.4384 0 1.5353 0.88054 2.461 0.88053 0.90311 2.2352 0.90311z"/>
			<path d="m59.518 22.444q-1.9417 0-3.4996-0.79022-1.5353-0.8128-2.4158-2.2352-0.85796-1.4224-0.85796-3.2286t0.85796-3.2286q0.88054-1.4224 2.4158-2.2126 1.5579-0.8128 3.4996-0.8128 1.9191 0 3.3415 0.8128 1.445 0.79022 2.0997 2.2804l-2.7319 1.4676q-0.94827-1.6708-2.7319-1.6708-1.3772 0-2.2804 0.90311-0.90311 0.90311-0.90311 2.461t0.90311 2.461 2.2804 0.90311q1.8062 0 2.7319-1.6708l2.7319 1.4901q-0.65475 1.445-2.0997 2.2578-1.4224 0.8128-3.3415 0.8128z"/>
			<path d="m70.373 11.72q0.63217-0.88053 1.6933-1.3321 1.0837-0.45156 2.4836-0.45156v3.2512q-0.58702-0.04516-0.79022-0.04516-1.5127 0-2.3707 0.85796-0.85796 0.83538-0.85796 2.5287v5.7348h-3.5221v-12.147h3.3641z"/>
			<path d="m81.477 9.9364q2.8222 0 4.3349 1.3547 1.5127 1.3321 1.5127 4.0414v6.9314h-3.2964v-1.5127q-0.99342 1.6933-3.7028 1.6933-1.3998 0-2.4384-0.47413-1.016-0.47413-1.5579-1.3095-0.54186-0.83538-0.54186-1.8965 0-1.6933 1.2644-2.6642 1.2869-0.97085 3.9511-0.97085h2.7996q0-1.1515-0.69992-1.7611-0.69991-0.63218-2.0997-0.63218-0.97085 0-1.9191 0.31609-0.92569 0.29351-1.5804 0.8128l-1.2644-2.461q0.99343-0.69991 2.3707-1.0837 1.3998-0.38382 2.8674-0.38382zm-0.27093 10.137q0.90311 0 1.603-0.4064 0.69992-0.42898 0.99343-1.2418v-1.2418h-2.4158q-2.1675 0-2.1675 1.4224 0 0.67733 0.51929 1.0837 0.54187 0.38382 1.4676 0.38382z"/>
			<path d="m94.599 22.444q-1.5127 0-2.9577-0.36124-1.445-0.38382-2.3029-0.94827l1.174-2.5287q0.8128 0.51929 1.9643 0.85796 1.1515 0.31609 2.2578 0.31609 2.2352 0 2.2352-1.1063 0-0.51929-0.6096-0.74507t-1.874-0.38382q-1.4901-0.22578-2.461-0.51929-0.97084-0.29351-1.6933-1.0386-0.69992-0.74507-0.69992-2.1223 0-1.1515 0.65476-2.032 0.67733-0.90311 1.9417-1.3998 1.2869-0.49671 3.0254-0.49671 1.2869 0 2.5513 0.29351 1.2869 0.27093 2.1223 0.76765l-1.174 2.5061q-1.603-0.90311-3.4996-0.90311-1.1289 0-1.6933 0.31609-0.56444 0.31609-0.56444 0.8128 0 0.56445 0.6096 0.79022t1.9417 0.42898q1.4901 0.24836 2.4384 0.54187 0.94827 0.27093 1.6482 1.016 0.69991 0.74507 0.69991 2.0772 0 1.1289-0.67733 2.0094-0.67734 0.88053-1.9868 1.3772-1.2869 0.47413-3.0706 0.47413z"/>
			<path d="m109.89 9.9364q2.2578 0 3.635 1.3547 1.3998 1.3547 1.3998 4.0188v6.954h-3.5221v-6.4121q0-1.445-0.63218-2.1449-0.63217-0.72249-1.8288-0.72249-1.3321 0-2.1223 0.83538-0.79022 0.8128-0.79022 2.4384v6.0057h-3.5221v-16.753h3.5221v5.8702q0.69991-0.69991 1.6933-1.0612 0.99342-0.38382 2.1675-0.38382z"/>
			<path d="m130.15 16.236q0 0.06773-0.0677 0.94827h-9.1892q0.24836 1.1289 1.174 1.7836t2.3029 0.65476q0.94826 0 1.6708-0.27093 0.74507-0.29351 1.3772-0.90311l1.874 2.032q-1.7159 1.9643-5.0123 1.9643-2.0546 0-3.635-0.79022-1.5804-0.8128-2.4384-2.2352-0.85796-1.4224-0.85796-3.2286 0-1.7836 0.83538-3.206 0.85795-1.445 2.3255-2.2352 1.4901-0.8128 3.3189-0.8128 1.7836 0 3.2286 0.76765 1.445 0.76764 2.2578 2.2126 0.83538 1.4224 0.83538 3.3189zm-6.2992-3.635q-1.1966 0-2.0094 0.67733t-0.99342 1.8514h5.9831q-0.18063-1.1515-0.99343-1.8288-0.8128-0.69991-1.9868-0.69991z"/>
			<path d="m135.86 11.72q0.63218-0.88053 1.6933-1.3321 1.0837-0.45156 2.4836-0.45156v3.2512q-0.58702-0.04516-0.79022-0.04516-1.5127 0-2.3707 0.85796-0.85796 0.83538-0.85796 2.5287v5.7348h-3.5221v-12.147h3.3641z"/>
		</g>
	</g>
</svg>
