<?xml version="1.0" encoding="UTF-8"?>
<!-- Generated by Pixelmator Pro 2.4.7 -->
<svg width="2050" height="510" viewBox="0 0 2050 510" xmlns="http://www.w3.org/2000/svg" xmlns:xlink="http://www.w3.org/1999/xlink">
    <g id="Home-icon">
        <g id="Icon-512">
            <path id="Rounded-Rectangle" fill="#3a3e56" fill-rule="evenodd" stroke="none" d="M 121 13 C 60.801479 13 12 61.801483 12 122 L 12 389 C 12 449.198517 60.801479 498 121 498 L 388 498 C 448.198517 498 497 449.198517 497 389 L 497 122 C 497 61.801483 448.198517 13 388 13 Z"/>
            <g id="Pill-Check">
                <path id="background" fill="none" stroke="none" d="M 216.609375 398.574219 C 199.762283 398.574158 182.914566 392.180664 170.060547 379.394531 C 167.80101 377.146912 165.741241 374.776245 163.878906 372.304688 L 88.269531 297.095703 C 62.561871 271.523712 62.563427 230.062347 88.271484 204.490234 C 113.978554 178.918488 155.657776 178.917999 181.365234 204.490234 L 217.082031 240.017578 L 322.96875 134.689453 C 348.676208 109.117584 390.357208 109.11795 416.064453 134.689453 C 441.772491 160.261688 441.772125 201.722809 416.064453 227.294922 L 263.15625 379.394531 C 250.302429 392.18042 233.456467 398.57428 216.609375 398.574219 Z"/>
                <path id="path1" fill="#147d67" fill-rule="evenodd" stroke="none" d="M 264.102478 282.912476 L 185.264435 204.490479 C 159.556946 178.918213 117.876617 178.919312 92.169327 204.491089 C 66.461456 230.063232 66.460861 271.523438 92.168549 297.095459 L 171.006378 375.517456"/>
                <path id="background-copy" fill="#29bb9c" fill-rule="evenodd" stroke="none" d="M 173.958984 286.790161 L 326.866974 134.688965 C 352.574463 109.117065 394.254822 109.118164 419.962097 134.689697 C 445.669983 160.261963 445.670593 201.721924 419.962891 227.294067 L 267.055084 379.395386 C 241.347382 404.967163 199.667053 404.967163 173.958984 379.394897 C 148.251709 353.82312 148.251495 312.362427 173.958984 286.790161 Z"/>
                <mask id="mask1" maskUnits="userSpaceOnUse" maskContentUnits="userSpaceOnUse" mask-type="alpha">
                    <path id="path2" fill="#29bb9c" fill-rule="evenodd" stroke="none" d="M 173.958984 286.790161 L 326.866974 134.688965 C 352.574463 109.117065 394.254822 109.118164 419.962097 134.689697 C 445.669983 160.261963 445.670593 201.721924 419.962891 227.294067 L 267.055084 379.395386 C 241.347382 404.967163 199.667053 404.967163 173.958984 379.394897 C 148.251709 353.82312 148.251495 312.362427 173.958984 286.790161 Z"/>
                </mask>
                <g id="Untitled-layer" mask="url(#mask1)">
                    <path id="Rectangle-3" fill="#229f85" fill-rule="evenodd" stroke="none" d="M 206.605286 225.969971 L 332.798737 351.05542 L 206.605286 476.140747 L 80.411667 351.05542 Z"/>
                </g>
            </g>
        </g>
    </g>
    <path id="PillTimer" fill="#229f85" fill-rule="evenodd" stroke="none" d="M 1842.052002 204.838989 L 1842.052002 377 L 1889.338013 377 L 1889.338013 299.411011 C 1889.338013 291.640961 1890.11499 284.426025 1891.668945 277.765991 C 1893.223022 271.105957 1895.831421 265.278503 1899.494507 260.283508 C 1903.157471 255.288467 1907.985962 251.348022 1913.97998 248.462006 C 1919.973999 245.575989 1927.299927 244.132996 1935.958008 244.132996 C 1938.843994 244.132996 1941.840942 244.2995 1944.948975 244.632507 C 1948.057007 244.965515 1950.720947 245.354004 1952.94104 245.798004 L 1952.94104 201.84201 C 1949.166992 200.731995 1945.726074 200.177002 1942.618042 200.177002 C 1936.624023 200.177002 1930.852051 201.065002 1925.302002 202.841003 C 1919.751953 204.617004 1914.535034 207.114471 1909.651001 210.333496 C 1904.766968 213.552521 1900.437988 217.437469 1896.66394 221.988495 C 1892.890015 226.53952 1889.893066 231.478973 1887.672974 236.807007 L 1887.006958 236.807007 L 1887.006958 204.838989 Z M 1766.793945 272.437988 L 1689.870972 272.437988 C 1690.093018 269.107971 1690.814453 265.334015 1692.035522 261.115997 C 1693.25647 256.89798 1695.365479 252.902008 1698.362549 249.127991 C 1701.359497 245.353973 1705.355469 242.190521 1710.350464 239.637512 C 1715.345581 237.084473 1721.616943 235.808014 1729.165039 235.808014 C 1740.709106 235.808014 1749.311523 238.915955 1754.972534 245.131989 C 1760.633545 251.348022 1764.573975 260.449951 1766.793945 272.437988 Z M 1689.870972 302.40802 L 1814.079956 302.40802 C 1814.968018 289.087952 1813.858032 276.323059 1810.75 264.113007 C 1807.641968 251.902954 1802.591553 241.025055 1795.598511 231.479004 C 1788.605469 221.932953 1779.670044 214.329529 1768.791992 208.668488 C 1757.91394 203.007477 1745.149048 200.177002 1730.496948 200.177002 C 1717.398926 200.177002 1705.466553 202.507965 1694.699463 207.170013 C 1683.932495 211.832031 1674.664063 218.214447 1666.894043 226.317505 C 1659.123901 234.420532 1653.130005 244.021942 1648.911987 255.121994 C 1644.69397 266.222046 1642.584961 278.20993 1642.584961 291.085999 C 1642.584961 304.406067 1644.638428 316.615967 1648.745483 327.716003 C 1652.852539 338.81604 1658.679932 348.361938 1666.228027 356.354004 C 1673.776001 364.346039 1682.988892 370.50647 1693.866943 374.83551 C 1704.744995 379.16452 1716.954956 381.328979 1730.496948 381.328979 C 1750.033081 381.328979 1766.682983 376.889038 1780.447021 368.009003 C 1794.21106 359.128967 1804.422974 344.366089 1811.083008 323.720001 L 1769.458008 323.720001 C 1767.904053 329.048035 1763.686035 334.09848 1756.803955 338.871521 C 1749.921997 343.644531 1741.708008 346.031006 1732.161987 346.031006 C 1718.841919 346.031006 1708.630005 342.590027 1701.526001 335.708008 C 1694.421997 328.825958 1690.536987 317.726074 1689.870972 302.40802 Z M 1350.543945 204.838989 L 1350.543945 377 L 1397.829956 377 L 1397.829956 277.100006 C 1397.829956 268.66394 1399.051025 261.837524 1401.493042 256.620483 C 1403.935059 251.403473 1406.876465 247.407501 1410.317505 244.632507 C 1413.758545 241.857483 1417.310425 239.97052 1420.973511 238.971497 C 1424.636475 237.972504 1427.578003 237.472992 1429.797974 237.472992 C 1437.346069 237.472992 1443.0625 238.749481 1446.94751 241.30249 C 1450.83252 243.855499 1453.607544 247.240967 1455.272461 251.459015 C 1456.9375 255.677017 1457.880981 260.283478 1458.103027 265.278503 C 1458.324951 270.273529 1458.436035 275.323975 1458.436035 280.429993 L 1458.436035 377 L 1505.722046 377 L 1505.722046 281.096008 C 1505.722046 275.767975 1506.110474 270.495544 1506.887451 265.278503 C 1507.664551 260.061462 1509.218506 255.399521 1511.549561 251.292511 C 1513.880493 247.185486 1517.099487 243.855499 1521.206543 241.30249 C 1525.313477 238.749481 1530.697021 237.472992 1537.357056 237.472992 C 1544.01709 237.472992 1549.289429 238.582977 1553.174561 240.803009 C 1557.05957 243.02301 1560.000977 246.019989 1561.999023 249.794006 C 1563.99707 253.568024 1565.218018 258.007996 1565.661987 263.114014 C 1566.105957 268.220032 1566.328003 273.658966 1566.328003 279.431 L 1566.328003 377 L 1613.614014 377 L 1613.614014 261.781982 C 1613.614014 250.681946 1612.060059 241.191528 1608.952026 233.310486 C 1605.843994 225.429474 1601.515015 219.047028 1595.964966 214.162994 C 1590.414917 209.278961 1583.755005 205.72702 1575.984985 203.506989 C 1568.214966 201.286987 1559.779053 200.177002 1550.677002 200.177002 C 1538.688965 200.177002 1528.310547 203.062958 1519.541504 208.834991 C 1510.772461 214.607025 1503.835083 221.266968 1498.729004 228.815002 C 1494.067017 218.158936 1487.240601 210.722015 1478.249512 206.503998 C 1469.258423 202.28598 1459.324097 200.177002 1448.446045 200.177002 C 1437.123901 200.177002 1427.078491 202.618988 1418.309448 207.502991 C 1409.540405 212.387024 1402.047974 219.268951 1395.832031 228.148987 L 1395.166016 228.148987 L 1395.166016 204.838989 Z M 1311.916016 178.199005 L 1311.916016 139.238007 L 1264.630005 139.238007 L 1264.630005 178.199005 Z M 1264.630005 204.838989 L 1264.630005 377 L 1311.916016 377 L 1311.916016 204.838989 Z M 1117.44397 183.194 L 1117.44397 377 L 1169.724976 377 L 1169.724976 183.194 L 1240.987061 183.194 L 1240.987061 139.238007 L 1046.182007 139.238007 L 1046.182007 183.194 Z M 975.252991 139.238007 L 975.252991 377 L 1022.539001 377 L 1022.539001 139.238007 Z M 889.338989 139.238007 L 889.338989 377 L 936.625 377 L 936.625 139.238007 Z M 850.710999 178.199005 L 850.710999 139.238007 L 803.424988 139.238007 L 803.424988 178.199005 Z M 803.424988 204.838989 L 803.424988 377 L 850.710999 377 L 850.710999 204.838989 Z M 637.257996 251.126007 L 637.257996 179.864014 L 677.883972 179.864014 C 683.878052 179.864014 689.649963 180.307983 695.200012 181.196014 C 700.75 182.084015 705.633972 183.804474 709.85199 186.357513 C 714.070007 188.910522 717.455505 192.517975 720.008484 197.179993 C 722.561523 201.84201 723.838013 207.94696 723.838013 215.494995 C 723.838013 223.04303 722.561523 229.14798 720.008484 233.809998 C 717.455505 238.472015 714.070007 242.079498 709.85199 244.632507 C 705.633972 247.185516 700.75 248.906006 695.200012 249.794006 C 689.649963 250.682007 683.878052 251.126007 677.883972 251.126007 Z M 584.97699 139.238007 L 584.97699 377 L 637.257996 377 L 637.257996 291.752014 L 692.203003 291.752014 C 707.077087 291.752014 719.730957 289.587524 730.164978 285.258484 C 740.59906 280.929474 749.090454 275.213013 755.639526 268.109009 C 762.188538 261.004944 766.961487 252.846558 769.958496 243.633514 C 772.955505 234.420441 774.453979 225.041046 774.453979 215.494995 C 774.453979 205.726959 772.955505 196.292053 769.958496 187.190002 C 766.961487 178.087952 762.188538 169.985046 755.639526 162.881012 C 749.090454 155.776978 740.59906 150.060516 730.164978 145.731506 C 719.730957 141.402466 707.077087 139.238007 692.203003 139.238007 Z"/>
</svg>
